# xmcd
#
# Track frame offsets:
#	150
#	16326
#	39512
#	53806
#	69433
#	85319
#	105538
#	125169
#	144867
#	166386
#	184373
#	201223
#
# Disc length: 3198 seconds
#
# Revision: 1
# Processed by: cddbd v1.5.2PL0 Copyright (c) Steve Scherf et al.
# Submitted via: audiograbber 1.83.01
#
DISCID=a50c7c0c
DTITLE=JOHN CAMPBELLJOHN - 2012 - THE LAND OF THE LIVIN' - DISC 2
DYEAR=2012
DGENRE=Blues
TTITLE0=Autobahn John
TTITLE1=How Does It feel
TTITLE2=Ask Me No Questions
TTITLE3=Good To Go
TTITLE4=Snake Oil
TTITLE5=Sydney Steel
TTITLE6=Kathaline
TTITLE7=Steady Rollin' Man (Live)
TTITLE8=Light At The End Of The Tunnel (Live)
TTITLE9=Excuse My Behavior (Live)
TTITLE10=Johnny Rock'n'Roll (Live)
TTITLE11=Tanz Des Siebenschlaefers - I Want To Get Up (Live)
EXTD=
EXTT0=
EXTT1=
EXTT2=
EXTT3=
EXTT4=
EXTT5=
EXTT6=
EXTT7=
EXTT8=
EXTT9=
EXTT10=
EXTT11=
PLAYORDER=
